<svg xmlns="http://www.w3.org/2000/svg" viewBox="0 0 1298.31 854.4"><defs><style>.a,.b,.c{fill:#fff;}.a,.b,.d,.e{stroke:#000;stroke-linecap:round;}.a,.b,.d{stroke-miterlimit:10;}.a{stroke-width:10.4px;}.b{stroke-width:7.43px;}.d{stroke-width:8.91px;}.e{fill:none;stroke-linejoin:round;stroke-width:54.72px;}</style></defs><path class="a" d="M1115,623.56h398.81a27.86,27.86,0,0,1,27.86,27.86v29a27.86,27.86,0,0,1-27.86,27.86H1115" transform="translate(-248.53 -68)"/><path class="b" d="M1136.31,623.88q19.55,42.2,0,84.38" transform="translate(-248.53 -68)"/><line class="c" x1="897.65" y1="584.22" x2="1014.82" y2="584.22"/><path d="M1146.18,648.51l117.18,3.71-117.18,3.71a3.71,3.71,0,1,1-.23-7.42Z" transform="translate(-248.53 -68)"/><line class="c" x1="897.65" y1="617.75" x2="1140.59" y2="617.65"/><path d="M1146.18,681.29l243,4.36-243,4.55a4.46,4.46,0,1,1-.16-8.91Z" transform="translate(-248.53 -68)"/><path class="a" d="M1114.87,824.08h398.81a27.85,27.85,0,0,1,27.86,27.85v29a27.86,27.86,0,0,1-27.86,27.86H1114.87" transform="translate(-248.53 -68)"/><path class="b" d="M1136.2,824.39q19.54,42.2,0,84.38" transform="translate(-248.53 -68)"/><line class="c" x1="897.54" y1="784.73" x2="1014.71" y2="784.73"/><path d="M1146.07,849l117.18,3.71-117.18,3.72a3.72,3.72,0,0,1-.23-7.43Z" transform="translate(-248.53 -68)"/><line class="c" x1="897.54" y1="818.26" x2="1140.49" y2="818.17"/><path d="M1146.07,881.8l243,4.37-242.94,4.55a4.46,4.46,0,0,1-.17-8.92Z" transform="translate(-248.53 -68)"/><path class="a" d="M1541.54,724.73H1142.73a27.86,27.86,0,0,0-27.86,27.86v29a27.86,27.86,0,0,0,27.86,27.86h398.81" transform="translate(-248.53 -68)"/><line class="c" x1="1261.8" y1="685.39" x2="1144.63" y2="685.39"/><path d="M1510.34,757.1l-117.18-3.71,117.18-3.72a3.72,3.72,0,1,1,.23,7.43Z" transform="translate(-248.53 -68)"/><line class="c" x1="1261.8" y1="718.92" x2="1018.85" y2="718.82"/><path d="M1510.33,791.37l-242.94-4.55,242.95-4.36a4.46,4.46,0,0,1,.16,8.91Z" transform="translate(-248.53 -68)"/><polygon class="d" points="923.26 657.69 923.26 798.83 955.6 761.89 977.25 799.46 977.25 657.37 923.26 657.69"/><path class="b" d="M1520.21,725.05q-19.55,42.19,0,84.38" transform="translate(-248.53 -68)"/><path class="a" d="M684.17,831.11H1083A27.86,27.86,0,0,1,1110.84,859v29A27.86,27.86,0,0,1,1083,915.81H684.17" transform="translate(-248.53 -68)"/><path class="b" d="M705.51,831.43q19.54,42.2,0,84.38" transform="translate(-248.53 -68)"/><line class="c" x1="466.84" y1="791.77" x2="584.02" y2="791.77"/><path d="M715.38,856.05l117.17,3.72-117.17,3.71a3.72,3.72,0,0,1-.24-7.43Z" transform="translate(-248.53 -68)"/><line class="c" x1="466.84" y1="825.3" x2="709.79" y2="825.2"/><path d="M715.38,888.84l242.94,4.36-242.94,4.55a4.46,4.46,0,1,1-.17-8.91Z" transform="translate(-248.53 -68)"/><path class="a" d="M1110.84,731.77H712a27.86,27.86,0,0,0-27.86,27.86v29A27.86,27.86,0,0,0,712,816.46h398.81" transform="translate(-248.53 -68)"/><line class="c" x1="831.1" y1="692.42" x2="713.93" y2="692.42"/><path d="M1079.64,764.14l-117.18-3.72,117.18-3.71a3.72,3.72,0,1,1,.23,7.43Z" transform="translate(-248.53 -68)"/><line class="c" x1="831.1" y1="725.95" x2="588.16" y2="725.86"/><path d="M1079.64,798.41l-243-4.55,243-4.36a4.46,4.46,0,1,1,.16,8.91Z" transform="translate(-248.53 -68)"/><polygon class="d" points="492.57 664.72 492.57 805.86 524.9 768.93 546.55 806.5 546.55 664.4 492.57 664.72"/><path class="b" d="M1089.51,732.09q-19.54,42.18,0,84.37" transform="translate(-248.53 -68)"/><path class="a" d="M253.73,832.51H652.54a27.86,27.86,0,0,1,27.86,27.86v29a27.86,27.86,0,0,1-27.86,27.86H253.73" transform="translate(-248.53 -68)"/><path class="b" d="M275.07,832.83q19.55,42.18,0,84.38" transform="translate(-248.53 -68)"/><line class="c" x1="36.4" y1="793.17" x2="153.58" y2="793.17"/><path d="M284.94,857.45l117.17,3.72-117.17,3.71a3.72,3.72,0,0,1-.24-7.43Z" transform="translate(-248.53 -68)"/><line class="c" x1="36.4" y1="826.69" x2="279.35" y2="826.6"/><path d="M284.94,890.24l242.94,4.36-242.94,4.55a4.46,4.46,0,1,1-.17-8.91Z" transform="translate(-248.53 -68)"/><polyline class="e" points="349.95 712.02 537.42 184.81 419.11 201.11 317.81 315.55"/><polyline class="e" points="466.43 398.06 592.57 437.06 543.93 613.92"/><polyline class="e" points="537.73 184.24 584.5 314.02 721.42 236.63"/><circle cx="598.88" cy="70.69" r="70.68"/></svg>