<svg xmlns="http://www.w3.org/2000/svg" x="0px" y="0px" width="100" height="100" viewBox="0 0 100 100">
<polygon fill="#4b4dff" points="79,78 18.126,78 18.126,19 78.622,19"></polygon><path fill="#4343bf" d="M82,81H15V16h67.052L82,81z M21,75h54.051l0.897-53H21V75z"></path><polygon fill="#3abcf8" points="85,85 21,85 21,75 75,75 75,22 85,22"></polygon><path fill="#edf7f5" d="M30,40.5h7.5V66H30V40.5z M33.728,37.5h-0.042C31.448,37.5,30,35.832,30,33.749 C30,31.62,31.493,30,33.771,30c2.282,0,3.687,1.62,3.729,3.749C37.5,35.831,36.053,37.5,33.728,37.5z M66,66h-7.5V52.352 c0-3.297-1.838-5.547-4.788-5.547c-2.251,0-3.47,1.518-4.061,2.985c-0.216,0.525-0.152,1.977-0.152,2.71V66H42V40.5h7.5v3.924 c1.082-1.674,2.775-3.924,7.107-3.924c5.367,0,9.392,3.375,9.392,10.911L66,66L66,66z"></path>
</svg>