<svg xmlns="http://www.w3.org/2000/svg" fill="none" viewBox="-0.5 -0.5 24 24" id="Playwright--Streamline-Svg-Logos" height="24" width="24"><desc>Playwright Streamline Icon: https://streamlinehq.com</desc><path fill="#2D4552" d="M7.662689583333334 12.594153125c-0.8406979166666667 0.23860104166666668 -1.3922427083333333 0.6569135416666666 -1.7555708333333335 1.0749145833333333 0.34799479166666664 -0.30453437499999997 0.814128125 -0.5840322916666667 1.442938541666667 -0.7622822916666667 0.6431375 -0.18227500000000002 1.1918072916666667 -0.18095729166666666 1.6451708333333332 -0.09348541666666667v-0.35451145833333336c-0.3867354166666667 -0.035362500000000005 -0.8301322916666667 -0.0071875 -1.3325385416666666 0.13536458333333332Zm-1.7940000000000003 -2.9802010416666667 -3.1222020833333337 0.8225614583333334s0.056901041666666666 0.08038020833333334 0.16224583333333334 0.18761770833333336l2.6472520833333335 -0.6975468750000001s-0.03751875 0.48338333333333333 -0.36328020833333335 0.9157833333333334c0.6162083333333334 -0.46620520833333334 0.675984375 -1.228415625 0.675984375 -1.228415625Zm2.6134947916666667 7.33771875C4.08839375 18.135092708333335 1.7637957291666668 13.043156250000001 1.0600005208333332 10.400240625c-0.3251625 -1.2199583333333333 -0.4671060416666667 -2.1438875 -0.5049386458333334 -2.7401385416666666 -0.004065729166666666 -0.06190833333333334 -0.0021873958333333333 -0.11408958333333334 0.0021897916666666667 -0.16191041666666667 -0.22792520833333332 0.013752083333333333 -0.33704727083333336 0.13222604166666665 -0.3148460416666667 0.4746145833333334 0.037832604166666665 0.595915625 0.17977854166666668 1.519796875 0.5049410416666666 2.7401385416666666C1.4508280208333333 13.355453125 3.7757375000000004 18.447389583333333 8.169552083333333 17.26399166666667c0.95636875 -0.25764791666666664 1.6748552083333335 -0.7269197916666666 2.2142052083333335 -1.3259739583333334 -0.4971354166666667 0.44900312500000006 -1.1193333333333333 0.8026041666666667 -1.9015729166666668 1.013653125Zm0.8256760416666666 -10.454027083333333v0.31270416666666667h1.72341875c-0.035362500000000005 -0.11071145833333335 -0.07098854166666667 -0.21047395833333332 -0.10635104166666667 -0.31270416666666667h-1.6170677083333334Z" stroke-width="1"></path><path fill="#2D4552" d="M11.416529166666667 9.072877083333333c0.7750520833333333 0.22010520833333333 1.1849791666666667 0.7635041666666667 1.401634375 1.2443958333333334l0.8641770833333334 0.24542916666666667s-0.11787500000000001 -1.6830010416666668 -1.6402114583333334 -2.115425c-1.4241552083333333 -0.4046322916666667 -2.3005510416666666 0.7912958333333333 -2.407141666666667 0.9460666666666667 0.41428750000000003 -0.2951666666666667 1.019259375 -0.5368104166666667 1.7815416666666668 -0.3204666666666667Zm6.879084375000001 1.2521583333333333c-1.4254489583333334 -0.40645312499999997 -2.3015093749999997 0.7919666666666667 -2.4065427083333337 0.9445572916666667 0.4145989583333333 -0.29480729166666664 1.019259375 -0.536546875 1.7812062499999999 -0.31922083333333334 0.77380625 0.22046458333333335 1.1833979166666666 0.7631927083333334 1.4007239583333333 1.2444197916666666l0.8654229166666667 0.24633958333333333s-0.11979166666666667 -1.6833364583333332 -1.6408104166666668 -2.1160958333333335Zm-0.8585708333333334 4.437562499999999 -7.188913541666667 -2.009744791666667s0.07781666666666666 0.39456979166666667 0.37643333333333334 0.90548125l6.0527375 1.6921052083333334c0.498309375 -0.2883145833333334 0.7597427083333333 -0.5878416666666666 0.7597427083333333 -0.5878416666666666ZM12.452942708333333 19.08853854166667C6.760730208333333 17.562416666666667 7.448885416666667 10.309773958333334 8.369963541666666 6.8729989583333335c0.37923645833333336 -1.4163208333333335 0.769134375 -2.469026041666667 1.0924520833333333 -3.1746947916666666 -0.19291250000000001 -0.03969895833333333 -0.352690625 0.06190833333333334 -0.5105760416666667 0.38299791666666666 -0.34329895833333335 0.6963010416666666 -0.7822875 1.829985416666667 -1.207140625 3.4170333333333334 -0.9208145833333333 3.436703125 -1.60899375 10.68910625 4.082979166666667 12.215228125000001 2.6829020833333335 0.71875 4.772955208333333 -0.37365416666666673 6.330989583333333 -2.0892145833333333 -1.4788760416666666 1.3394625 -3.3670322916666664 2.0904364583333335 -5.705725 1.4641895833333334Z" stroke-width="1"></path><path fill="#E2574C" d="M9.307908333333334 15.252042708333333V13.7885l-4.0663760416666666 1.1530666666666667s0.3004614583333333 -1.7458437500000001 2.4212052083333333 -2.3474375000000003c0.6431375 -0.18227500000000002 1.1918791666666668 -0.18102916666666669 1.6451708333333332 -0.09348541666666667V6.497619791666667h2.036051041666667c-0.22168645833333334 -0.6850406250000001 -0.4361375 -1.2124354166666667 -0.6162562500000001 -1.5789020833333334 -0.2979697916666667 -0.606553125 -0.6034145833333334 -0.20446041666666667 -1.2968645833333334 0.37552291666666665 -0.4884145833333334 0.408034375 -1.722771875 1.2784645833333332 -3.5802375 1.7790020833333333 -1.8575135416666666 0.5008489583333333 -3.359197916666667 0.36802395833333335 -3.9857658333333337 0.2595166666666667 -0.8882623958333334 -0.1532375 -1.3528719791666668 -0.34830625 -1.3094067708333335 0.32731875000000005 0.03782541666666667 0.595915625 0.17977854166666668 1.51986875 0.5049386458333334 2.7401385416666666C1.7638436458333333 13.042796875 4.088753125 18.134733333333337 8.48254375 16.951335416666666c1.1477239583333334 -0.30925416666666666 1.9578270833333333 -0.920503125 2.5193624999999997 -1.6996041666666668h-1.6939979166666668v0.00031145833333333335ZM2.7462239583333337 10.436489583333334l3.1225135416666667 -0.8225614583333334s-0.09101770833333334 1.2012229166666666 -1.2615979166666667 1.50980625c-1.1708916666666667 0.30827187500000003 -1.860915625 -0.6872447916666667 -1.860915625 -0.6872447916666667Z" stroke-width="1"></path><path fill="#2EAD33" d="M21.059446875000003 6.566979166666667c-0.8116604166666667 0.14228854166666666 -2.758921875 0.31955625000000004 -5.165392708333333 -0.32547395833333337 -2.407141666666667 -0.6446468750000001 -4.004252083333333 -1.7721260416666667 -4.637015625000001 -2.302084375 -0.8970000000000001 -0.7513093750000001 -1.2915697916666669 -1.2734572916666667 -1.6798864583333335 -0.4836708333333334 -0.34329895833333335 0.6965885416666667 -0.7823114583333334 1.8302968750000002 -1.2072364583333333 3.417344791666667 -0.9207427083333334 3.436703125 -1.6088979166666666 10.68910625 4.083003125 12.215204166666666 5.690703125000001 1.524828125 8.72030625 -5.1004177083333335 9.641120833333334 -8.537432291666669 0.42492500000000005 -1.5867364583333332 0.6112489583333334 -2.7882708333333333 0.6625197916666666 -3.5630114583333334 0.058458333333333334 -0.8776177083333334 -0.5443572916666667 -0.6228687500000001 -1.6971125 -0.42087604166666664ZM9.623391666666667 9.41030625s0.8970000000000001 -1.3950937500000002 2.418378125 -0.9626937500000001c1.5223364583333334 0.43242395833333336 1.6402114583333334 2.115448958333334 1.6402114583333334 2.115448958333334l-4.058589583333334 -1.1527552083333332ZM13.337125 15.670666666666667c-2.676002083333333 -0.7838927083333334 -3.0887083333333334 -2.917789583333333 -3.0887083333333334 -2.917789583333333l7.188578125 2.0098166666666666c0 -0.0003354166666666667 -1.4510125 1.6820427083333334 -4.099869791666667 0.9079729166666667Zm2.5415958333333335 -4.385381250000001s0.8957541666666666 -1.3941354166666666 2.4168447916666667 -0.9604895833333335c1.5210427083333333 0.43307083333333335 1.6408104166666668 2.1160958333333335 1.6408104166666668 2.1160958333333335l-4.057655208333333 -1.1556062500000002Z" stroke-width="1"></path><path fill="#D65348" d="M7.886987500000001 14.191503125 5.241604166666667 14.941255208333335s0.28735625000000004 -1.6370489583333334 2.2361270833333333 -2.285792708333333l-1.497946875 -5.621559375 -0.12944687500000002 0.03933958333333334c-1.8574895833333334 0.5009208333333334 -3.3591739583333333 0.36802395833333335 -3.985737083333333 0.2595166666666667 -0.8882576041666668 -0.153165625 -1.3528647916666667 -0.34830625 -1.3094067708333335 0.32739062500000005 0.037832604166666665 0.595915625 0.17977854166666668 1.519796875 0.5049386458333334 2.7401145833333334 0.7034813541666667 2.642532291666667 3.0284052083333335 7.7344687500000004 7.422171875000001 6.551070833333333l0.12944687500000002 -0.040657291666666664 -0.7247635416666667 -2.7191750000000003ZM2.7462958333333334 10.4365375l3.1225135416666667 -0.822609375s-0.09101770833333334 1.2012229166666666 -1.2615739583333334 1.50980625c-1.170915625 0.30827187500000003 -1.8609395833333335 -0.687196875 -1.8609395833333335 -0.687196875Z" stroke-width="1"></path><path fill="#1D8D22" d="m13.457827083333333 15.700015625 -0.1210375 -0.029420833333333337c-2.675978125 -0.7838208333333333 -3.0887083333333334 -2.9177177083333334 -3.0887083333333334 -2.9177177083333334l3.7068812500000003 1.03615 1.9624989583333334 -7.54126875 -0.023742708333333334 -0.006253125000000001c-2.407141666666667 -0.6446468750000001 -4.00415625 -1.7721260416666667 -4.637015625000001 -2.302084375 -0.8970000000000001 -0.7513093750000001 -1.2915697916666669 -1.2734572916666667 -1.6798864583333335 -0.4836708333333334 -0.3429635416666667 0.6965885416666667 -0.7819760416666667 1.8302968750000002 -1.2069010416666666 3.417344791666667 -0.9207427083333334 3.436703125 -1.6088979166666666 10.68910625 4.083003125 12.21515625l0.11665312500000001 0.02628229166666667 0.8882552083333334 -3.4145177083333333ZM9.623391666666667 9.410330208333335s0.8970000000000001 -1.3951177083333335 2.418378125 -0.9627177083333334c1.5223364583333334 0.43242395833333336 1.6402114583333334 2.115448958333334 1.6402114583333334 2.115448958333334l-4.058589583333334 -1.15273125Z" stroke-width="1"></path><path fill="#C04B41" d="m8.021777083333333 14.152954166666667 -0.7094302083333334 0.20134583333333336c0.16758854166666667 0.9448208333333333 0.4629947916666667 1.8515479166666668 0.9266843750000001 2.6525708333333333 0.08069166666666666 -0.017825 0.16073645833333336 -0.033134375 0.2429375 -0.05565520833333334 0.21543333333333334 -0.05812291666666667 0.4151979166666667 -0.13009375 0.6075354166666667 -0.20858125000000002 -0.518075 -0.7687989583333333 -0.8607989583333334 -1.6542510416666667 -1.0677270833333334 -2.5896802083333337Zm-0.27703020833333336 -6.6545708333333335c-0.36455000000000004 1.360665625 -0.6906947916666667 3.3191395833333335 -0.6009229166666666 5.28353125 0.16068854166666666 -0.06974270833333335 0.33043333333333336 -0.13471770833333335 0.5189854166666666 -0.18821666666666667l0.13133958333333334 -0.029348958333333335c-0.16011354166666666 -2.098294791666667 0.18598854166666667 -4.236504166666667 0.5758864583333334 -5.691302083333333 0.098828125 -0.36802395833333335 0.19791979166666665 -0.7103406250000001 0.2967 -1.0295854166666667 -0.15910729166666668 0.10127187500000001 -0.33043333333333336 0.20505937500000002 -0.5255739583333334 0.3119854166666667 -0.13160312500000002 0.4061895833333333 -0.2645 0.8501614583333335 -0.39641458333333335 1.3429364583333334Z" stroke-width="1"></path></svg>