<svg xmlns="http://www.w3.org/2000/svg" fill="none" viewBox="0 0 96 96" id="Tailwindcss--Streamline-Svg-Logos" height="24" width="24" stroke-width="1"><desc>Tailwindcss Streamline Icon: https://streamlinehq.com</desc><path fill="url(#a)" d="M10.7118 42.1729c-2.58983 0-4.20846 1.2949-4.85591 3.8847.97118-1.2949 2.10422-1.7805 3.39913-1.4568.73881.1847 1.26688.7207 1.85138 1.314.9522.9665 2.0542 2.0851 4.4613 2.0851 2.5898 0 4.2084-1.2949 4.8559-3.8847-.9712 1.2949-2.1043 1.7805-3.3992 1.4568-.7388-.1847-1.2668-.7207-1.8513-1.314-.9522-.9665-2.0543-2.0851-4.4613-2.0851Zm-4.85591 5.827c-2.58981 0-4.20844 1.2949-4.85589 3.8847.97118-1.2949 2.10422-1.7805 3.39912-1.4567.73882.1847 1.26689.7207 1.85139 1.314.95219.9665 2.05423 2.0851 4.46129 2.0851 2.5898 0 4.2084-1.2949 4.8559-3.8847-.9712 1.2949-2.1042 1.7805-3.3991 1.4567-.7389-.1847-1.2669-.7206-1.8514-1.314-.95222-.9665-2.05426-2.0851-4.46131-2.0851Z"></path><path fill="#2d3748" d="M30.1341 47.0828h-1.6948v3.2805c0 .8747.574.8611 1.6948.8064v1.3258c-2.2689.2734-3.171-.3553-3.171-2.1322v-3.2805h-1.2575v-1.4215h1.2575v-1.8359l1.4762-.4374v2.2733h1.6948v1.4215Zm6.4609-1.4215h1.4762v6.8342H36.595v-.9841c-.5194.7244-1.3258 1.1618-2.392 1.1618-1.8589 0-3.4034-1.5718-3.4034-3.5948 0-2.0366 1.5445-3.5948 3.4034-3.5948 1.0662 0 1.8726.4374 2.392 1.1482v-.9705Zm-2.1596 5.6041c1.2301 0 2.1596-.9158 2.1596-2.187 0-1.2711-.9295-2.1869-2.1596-2.1869-1.2302 0-2.1596.9158-2.1596 2.1869 0 1.2712.9294 2.187 2.1596 2.187Zm6.0961-6.6292c-.5194 0-.9431-.4374-.9431-.9431 0-.5194.4237-.9432.9431-.9432.5194 0 .9431.4238.9431.9432 0 .5057-.4237.9431-.9431.9431Zm-.7381 7.8593v-6.8342h1.4762v6.8342h-1.4762Zm3.1848 0v-9.9779h1.4761v9.9779h-1.4761Zm11.0577-6.8342h1.5582l-2.1459 6.8342h-1.4489l-1.4215-4.6062-1.4352 4.6062h-1.4488l-2.146-6.8342h1.5582l1.3259 4.7156 1.4351-4.7156h1.4079l1.4215 4.7156 1.3395-4.7156Zm3.3898-1.0251c-.5194 0-.9431-.4374-.9431-.9431 0-.5194.4237-.9432.9431-.9432.5194 0 .9431.4238.9431.9432 0 .5057-.4237.9431-.9431.9431Zm-.7381 7.8593v-6.8342h1.4762v6.8342h-1.4762Zm6.7795-7.0119c1.5309 0 2.6244 1.0388 2.6244 2.8157v4.1962h-1.4762v-4.0458c0-1.0388-.6014-1.5856-1.5309-1.5856-.9704 0-1.7359.5741-1.7359 1.9683v3.6631h-1.4762v-6.8342h1.4762v.8748c.4511-.7108 1.1892-1.0525 2.1186-1.0525Zm9.6226-2.556h1.4762v9.5679h-1.4762v-.9841c-.5194.7244-1.3258 1.1618-2.392 1.1618-1.8589 0-3.4034-1.5718-3.4034-3.5948 0-2.0366 1.5445-3.5948 3.4034-3.5948 1.0662 0 1.8726.4374 2.392 1.1482v-3.7042Zm-2.1596 8.3378c1.2302 0 2.1596-.9158 2.1596-2.187 0-1.2711-.9294-2.1869-2.1596-2.1869-1.2302 0-2.1596.9158-2.1596 2.1869 0 1.2712.9294 2.187 2.1596 2.187Zm8.5838 1.4078c-2.0639 0-3.6085-1.5718-3.6085-3.5948 0-2.0366 1.5446-3.5948 3.6085-3.5948 1.3395 0 2.5013.6971 3.048 1.7633l-1.2711.7381c-.3007-.6425-.9705-1.0525-1.7906-1.0525-1.2028 0-2.1186.9158-2.1186 2.1459 0 1.2302.9158 2.146 2.1186 2.146.8201 0 1.4899-.4238 1.8179-1.0525l1.2712.7244c-.5741 1.0798-1.7359 1.7769-3.0754 1.7769Zm5.5084-5.1256c0 1.2438 3.6768.492 3.6768 3.0207 0 1.3668-1.1892 2.1049-2.6654 2.1049-1.3668 0-2.3509-.6151-2.7883-1.5992l1.2711-.7381c.2187.6151.7655.9842 1.5172.9842.6561 0 1.1619-.2187 1.1619-.7655 0-1.2165-3.6769-.5331-3.6769-2.9797 0-1.2848 1.1072-2.0913 2.5014-2.0913 1.1208 0 2.0502.5194 2.5286 1.4215l-1.2438.6971c-.246-.533-.7244-.7791-1.2848-.7791-.5331 0-.9978.2324-.9978.7245Zm6.3011 0c0 1.2438 3.6768.492 3.6768 3.0207 0 1.3668-1.1891 2.1049-2.6653 2.1049-1.3669 0-2.351-.6151-2.7884-1.5992l1.2712-.7381c.2187.6151.7654.9842 1.5172.9842.6561 0 1.1618-.2187 1.1618-.7655 0-1.2165-3.6768-.5331-3.6768-2.9797 0-1.2848 1.1071-2.0913 2.5013-2.0913 1.1208 0 2.0503.5194 2.5287 1.4215l-1.2439.6971c-.246-.533-.7244-.7791-1.2848-.7791-.5331 0-.9978.2324-.9978.7245Z"></path><defs><linearGradient id="a" x1="-52.954" x2="1624.59" y1="415.105" y2="1382.34" gradientUnits="userSpaceOnUse"><stop stop-color="#2298bd"></stop><stop offset="1" stop-color="#0ed7b5"></stop></linearGradient></defs></svg>